<?xml version="1.0" encoding="UTF-8"?>
<svg width="24" height="24" viewBox="0 0 24 24" fill="none" xmlns="http://www.w3.org/2000/svg">
    <path d="M7.97 16L5 19C4.67 19.3 4.23 19.5 3.75 19.5C2.78 19.5 2 18.72 2 17.75V17.5L3 10.12C3.21 7.81 5.14 6 7.5 6H16.5C18.86 6 20.79 7.81 21 10.12L22 17.5V17.75C22 18.72 21.22 19.5 20.25 19.5C19.77 19.5 19.33 19.3 19 19L16.03 16H7.97M7 8V10H5V12H7V14H9V12H11V10H9V8H7M15 9.5C14.17 9.5 13.5 10.17 13.5 11C13.5 11.83 14.17 12.5 15 12.5C15.83 12.5 16.5 11.83 16.5 11C16.5 10.17 15.83 9.5 15 9.5M17 12C16.17 12 15.5 12.67 15.5 13.5C15.5 14.33 16.17 15 17 15C17.83 15 18.5 14.33 18.5 13.5C18.5 12.67 17.83 12 17 12Z" fill="currentColor"/>
</svg> 