<?xml version="1.0" encoding="UTF-8"?>
<svg xmlns="http://www.w3.org/2000/svg" viewBox="0 0 512 512">
    <path fill="#ffffff" d="M352 96c0-53.02-42.98-96-96-96s-96 42.98-96 96 42.98 96 96 96 96-42.98 96-96zM233.59 241.1c-59.33-36.32-155.43-46.3-203.79-49.05C13.55 191.13 0 203.51 0 219.14v222.8c0 14.33 11.59 26.06 26.49 26.06h74.58c48.73 0 88.93-35.55 88.93-79.91 0-28.11-26.53-51.08-48.93-51.08-17.9 0-32.45 14.55-32.45 32.45 0 17.91 14.55 32.46 32.45 32.46.28 0 .51-.22.51-.5s-.23-.5-.51-.5c-9.68 0-17.45-7.76-17.45-17.46 0-9.69 7.77-17.45 17.45-17.45 13.93 0 33.93 16.01 33.93 36.08 0 35.8-33.48 64.91-73.93 64.91H26.49c-6.06 0-11.49-5.43-11.49-11.06V219.14c0-6.03 5.25-11 11.77-11 49.55 2.83 145.02 12.82 204.45 49.05l98.21 60.19c8.81 5.41 11.57 16.84 6.17 25.66l-51.92 84.63c-4.99 8.13-15.56 10.69-23.69 5.7-8.13-5-10.69-15.56-5.7-23.69l43.18-70.36-89.47-54.83c-5.31-3.25-7-10.13-3.75-15.44 3.25-5.31 10.13-7 15.44-3.75l102.21 62.62c4.25 2.6 5.59 8.14 2.99 12.39l-51.92 84.63c-7.37 12.01-22.99 15.78-35 8.41-12.01-7.37-15.78-22.99-8.41-35l48.35-78.81-98.21-60.19z"/>
</svg> 